<?xml version="1.0" encoding="UTF-8" standalone="no"?>
<!DOCTYPE svg PUBLIC "-//W3C//DTD SVG 1.1//EN"
 "http://www.w3.org/Graphics/SVG/1.1/DTD/svg11.dtd">
<!-- Generated by graphviz version 2.38.0 (20140413.2041)
 -->
<!-- Title: %3 Pages: 1 -->
<svg width="622pt" height="571pt"
 viewBox="0.00 0.00 621.50 571.00" xmlns="http://www.w3.org/2000/svg" xmlns:xlink="http://www.w3.org/1999/xlink">
<g id="graph0" class="graph" transform="scale(1 1) rotate(0) translate(4 567)">
<title>%3</title>
<polygon fill="white" stroke="none" points="-4,4 -4,-567 617.5,-567 617.5,4 -4,4"/>
<!-- X3 -->
<g id="node1" class="node"><title>X3</title>
<polygon fill="none" stroke="black" points="390.5,-481 381.5,-472 390.5,-463 399.5,-472 390.5,-481"/>
</g>
<!-- X1 -->
<g id="node2" class="node"><title>X1</title>
<polygon fill="none" stroke="black" points="339.5,-105 330.5,-96 339.5,-87 348.5,-96 339.5,-105"/>
</g>
<!-- X3&#45;&gt;X1 -->
<g id="edge10" class="edge"><title>X3&#45;&gt;X1</title>
<path fill="none" stroke="black" d="M390.5,-462.745C390.5,-446.449 390.5,-408.991 390.5,-377.5 390.5,-377.5 390.5,-377.5 390.5,-161.5 390.5,-137.377 368.278,-116.996 353.171,-105.929"/>
<polygon fill="black" stroke="black" points="354.807,-102.808 344.577,-100.055 350.858,-108.587 354.807,-102.808"/>
<text text-anchor="middle" x="406.5" y="-272.3" font-family="Helvetica,sans-Serif" font-size="9.00">MMU</text>
<text text-anchor="middle" x="406.5" y="-262.3" font-family="Helvetica,sans-Serif" font-size="9.00">inactive</text>
</g>
<!-- Look up\npage\ndirectory -->
<g id="node5" class="node"><title>Look up\npage\ndirectory</title>
<polygon fill="none" stroke="black" points="216.5,-397 162.5,-397 162.5,-356 216.5,-356 216.5,-397"/>
<text text-anchor="middle" x="189.5" y="-385" font-family="Helvetica,sans-Serif" font-size="10.00">Look up</text>
<text text-anchor="middle" x="189.5" y="-374" font-family="Helvetica,sans-Serif" font-size="10.00">page</text>
<text text-anchor="middle" x="189.5" y="-363" font-family="Helvetica,sans-Serif" font-size="10.00">directory</text>
</g>
<!-- X3&#45;&gt;Look up\npage\ndirectory -->
<g id="edge2" class="edge"><title>X3&#45;&gt;Look up\npage\ndirectory</title>
<path fill="none" stroke="black" d="M384.701,-468.303C361.723,-457.614 275.889,-417.686 226.023,-394.49"/>
<polygon fill="black" stroke="black" points="227.399,-391.27 216.856,-390.225 224.447,-397.617 227.399,-391.27"/>
<text text-anchor="middle" x="344" y="-432.8" font-family="Helvetica,sans-Serif" font-size="9.00">MMU</text>
<text text-anchor="middle" x="344" y="-422.8" font-family="Helvetica,sans-Serif" font-size="9.00">active</text>
</g>
<!-- MMU_\nOUT_OF_BOUNDS -->
<g id="node14" class="node"><title>MMU_\nOUT_OF_BOUNDS</title>
<polygon fill="#ffaeb9" stroke="black" points="483,-38.5 378,-38.5 378,-2.5 483,-2.5 483,-38.5"/>
<text text-anchor="middle" x="430.5" y="-23.5" font-family="Helvetica,sans-Serif" font-size="10.00">MMU_</text>
<text text-anchor="middle" x="430.5" y="-12.5" font-family="Helvetica,sans-Serif" font-size="10.00">OUT_OF_BOUNDS</text>
</g>
<!-- X1&#45;&gt;MMU_\nOUT_OF_BOUNDS -->
<g id="edge12" class="edge"><title>X1&#45;&gt;MMU_\nOUT_OF_BOUNDS</title>
<path fill="none" stroke="black" d="M344.138,-91.2541C354.561,-82.835 380.554,-61.8412 401.319,-45.0693"/>
<polygon fill="black" stroke="black" points="403.683,-47.659 409.263,-38.6528 399.285,-42.2134 403.683,-47.659"/>
<text text-anchor="middle" x="408.5" y="-61.8" font-family="Helvetica,sans-Serif" font-size="9.00">&gt;= RAM size</text>
</g>
<!-- Access\nRAM\ndirectly -->
<g id="node15" class="node"><title>Access\nRAM\ndirectly</title>
<polygon fill="#bcee68" stroke="black" points="340.5,-41 286.5,-41 286.5,-0 340.5,-0 340.5,-41"/>
<text text-anchor="middle" x="313.5" y="-29" font-family="Helvetica,sans-Serif" font-size="10.00">Access</text>
<text text-anchor="middle" x="313.5" y="-18" font-family="Helvetica,sans-Serif" font-size="10.00">RAM</text>
<text text-anchor="middle" x="313.5" y="-7" font-family="Helvetica,sans-Serif" font-size="10.00">directly</text>
</g>
<!-- X1&#45;&gt;Access\nRAM\ndirectly -->
<g id="edge11" class="edge"><title>X1&#45;&gt;Access\nRAM\ndirectly</title>
<path fill="none" stroke="black" d="M334.525,-91.6522C328.495,-87.2651 318.629,-78.9479 314.5,-69 312.247,-63.572 311.171,-57.486 310.791,-51.5288"/>
<polygon fill="black" stroke="black" points="314.289,-51.1024 310.754,-41.1146 307.289,-51.1267 314.289,-51.1024"/>
<text text-anchor="middle" x="338" y="-61.8" font-family="Helvetica,sans-Serif" font-size="9.00">&lt; RAM size</text>
</g>
<!-- X2 -->
<g id="node3" class="node"><title>X2</title>
<polygon fill="none" stroke="black" points="501.5,-481 492.5,-472 501.5,-463 510.5,-472 501.5,-481"/>
</g>
<!-- Access\ndevice\nregister -->
<g id="node12" class="node"><title>Access\ndevice\nregister</title>
<polygon fill="#bcee68" stroke="black" points="532.5,-397 478.5,-397 478.5,-356 532.5,-356 532.5,-397"/>
<text text-anchor="middle" x="505.5" y="-385" font-family="Helvetica,sans-Serif" font-size="10.00">Access</text>
<text text-anchor="middle" x="505.5" y="-374" font-family="Helvetica,sans-Serif" font-size="10.00">device</text>
<text text-anchor="middle" x="505.5" y="-363" font-family="Helvetica,sans-Serif" font-size="10.00">register</text>
</g>
<!-- X2&#45;&gt;Access\ndevice\nregister -->
<g id="edge14" class="edge"><title>X2&#45;&gt;Access\ndevice\nregister</title>
<path fill="none" stroke="black" d="M501.841,-463.028C502.364,-450.806 503.391,-426.808 504.224,-407.336"/>
<polygon fill="black" stroke="black" points="507.731,-407.227 504.662,-397.086 500.738,-406.928 507.731,-407.227"/>
<text text-anchor="middle" x="522" y="-437.8" font-family="Helvetica,sans-Serif" font-size="9.00">Register</text>
<text text-anchor="middle" x="522" y="-427.8" font-family="Helvetica,sans-Serif" font-size="9.00">memory</text>
<text text-anchor="middle" x="522" y="-417.8" font-family="Helvetica,sans-Serif" font-size="9.00">area</text>
</g>
<!-- Access\ndevice\nRAM -->
<g id="node13" class="node"><title>Access\ndevice\nRAM</title>
<polygon fill="#bcee68" stroke="black" points="604.5,-397 550.5,-397 550.5,-356 604.5,-356 604.5,-397"/>
<text text-anchor="middle" x="577.5" y="-385" font-family="Helvetica,sans-Serif" font-size="10.00">Access</text>
<text text-anchor="middle" x="577.5" y="-374" font-family="Helvetica,sans-Serif" font-size="10.00">device</text>
<text text-anchor="middle" x="577.5" y="-363" font-family="Helvetica,sans-Serif" font-size="10.00">RAM</text>
</g>
<!-- X2&#45;&gt;Access\ndevice\nRAM -->
<g id="edge15" class="edge"><title>X2&#45;&gt;Access\ndevice\nRAM</title>
<path fill="none" stroke="black" d="M507.357,-468.624C516.177,-464.795 532.958,-456.51 543.5,-445 553.599,-433.974 561.444,-419.389 567.041,-406.599"/>
<polygon fill="black" stroke="black" points="570.316,-407.836 570.883,-397.257 563.842,-405.174 570.316,-407.836"/>
<text text-anchor="middle" x="588.5" y="-437.8" font-family="Helvetica,sans-Serif" font-size="9.00">RAM device</text>
<text text-anchor="middle" x="588.5" y="-427.8" font-family="Helvetica,sans-Serif" font-size="9.00">memory</text>
<text text-anchor="middle" x="588.5" y="-417.8" font-family="Helvetica,sans-Serif" font-size="9.00">area</text>
</g>
<!-- X2&#45;&gt;MMU_\nOUT_OF_BOUNDS -->
<g id="edge16" class="edge"><title>X2&#45;&gt;MMU_\nOUT_OF_BOUNDS</title>
<path fill="none" stroke="black" d="M497.152,-466.789C484.819,-454.372 450.5,-416.33 450.5,-377.5 450.5,-377.5 450.5,-377.5 450.5,-95 450.5,-79.1927 446.14,-62.1229 441.491,-48.4157"/>
<polygon fill="black" stroke="black" points="444.653,-46.8687 437.947,-38.6659 438.074,-49.26 444.653,-46.8687"/>
<text text-anchor="middle" x="462" y="-213.8" font-family="Helvetica,sans-Serif" font-size="9.00">Other</text>
</g>
<!-- Memory\nAccess -->
<g id="node4" class="node"><title>Memory\nAccess</title>
<polygon fill="none" stroke="black" points="468.5,-563 414.5,-563 414.5,-527 468.5,-527 468.5,-563"/>
<text text-anchor="middle" x="441.5" y="-548" font-family="Helvetica,sans-Serif" font-size="10.00">Memory</text>
<text text-anchor="middle" x="441.5" y="-537" font-family="Helvetica,sans-Serif" font-size="10.00">Access</text>
</g>
<!-- Memory\nAccess&#45;&gt;X3 -->
<g id="edge1" class="edge"><title>Memory\nAccess&#45;&gt;X3</title>
<path fill="none" stroke="black" d="M419.132,-526.695C413.458,-521.482 407.769,-515.424 403.5,-509 399.589,-503.114 396.684,-495.906 394.624,-489.49"/>
<polygon fill="black" stroke="black" points="397.983,-488.506 391.927,-479.813 391.24,-490.386 397.983,-488.506"/>
<text text-anchor="middle" x="433.5" y="-501.8" font-family="Helvetica,sans-Serif" font-size="9.00">&lt; 0xF0000000</text>
</g>
<!-- Memory\nAccess&#45;&gt;X2 -->
<g id="edge13" class="edge"><title>Memory\nAccess&#45;&gt;X2</title>
<path fill="none" stroke="black" d="M456.024,-526.813C466.861,-513.989 481.409,-496.775 491.101,-485.305"/>
<polygon fill="black" stroke="black" points="493.888,-487.43 497.67,-477.532 488.542,-482.911 493.888,-487.43"/>
<text text-anchor="middle" x="512" y="-501.8" font-family="Helvetica,sans-Serif" font-size="9.00">&gt;= 0xF0000000</text>
</g>
<!-- Look up\npage\ntable -->
<g id="node6" class="node"><title>Look up\npage\ntable</title>
<polygon fill="none" stroke="black" points="283.5,-290 229.5,-290 229.5,-249 283.5,-249 283.5,-290"/>
<text text-anchor="middle" x="256.5" y="-278" font-family="Helvetica,sans-Serif" font-size="10.00">Look up</text>
<text text-anchor="middle" x="256.5" y="-267" font-family="Helvetica,sans-Serif" font-size="10.00">page</text>
<text text-anchor="middle" x="256.5" y="-256" font-family="Helvetica,sans-Serif" font-size="10.00">table</text>
</g>
<!-- Look up\npage\ndirectory&#45;&gt;Look up\npage\ntable -->
<g id="edge3" class="edge"><title>Look up\npage\ndirectory&#45;&gt;Look up\npage\ntable</title>
<path fill="none" stroke="black" d="M216.658,-360.213C225.08,-354.27 233.67,-346.763 239.5,-338 246.925,-326.838 251.108,-312.674 253.463,-300.206"/>
<polygon fill="black" stroke="black" points="256.935,-300.66 255.043,-290.235 250.021,-299.564 256.935,-300.66"/>
<text text-anchor="middle" x="264" y="-320.8" font-family="Helvetica,sans-Serif" font-size="9.00">Other</text>
</g>
<!-- MMU_\nPAGE_FAULT -->
<g id="node7" class="node"><title>MMU_\nPAGE_FAULT</title>
<polygon fill="#ffaeb9" stroke="black" points="81,-287.5 0,-287.5 0,-251.5 81,-251.5 81,-287.5"/>
<text text-anchor="middle" x="40.5" y="-272.5" font-family="Helvetica,sans-Serif" font-size="10.00">MMU_</text>
<text text-anchor="middle" x="40.5" y="-261.5" font-family="Helvetica,sans-Serif" font-size="10.00">PAGE_FAULT</text>
</g>
<!-- Look up\npage\ndirectory&#45;&gt;MMU_\nPAGE_FAULT -->
<g id="edge4" class="edge"><title>Look up\npage\ndirectory&#45;&gt;MMU_\nPAGE_FAULT</title>
<path fill="none" stroke="black" d="M162.395,-364.69C147.123,-358.025 128.051,-348.712 112.5,-338 94.4031,-325.535 76.3681,-308.618 62.8749,-294.839"/>
<polygon fill="black" stroke="black" points="65.3271,-292.339 55.8743,-287.554 60.28,-297.19 65.3271,-292.339"/>
<text text-anchor="middle" x="128.5" y="-325.8" font-family="Helvetica,sans-Serif" font-size="9.00">Page</text>
<text text-anchor="middle" x="128.5" y="-315.8" font-family="Helvetica,sans-Serif" font-size="9.00">inactive</text>
</g>
<!-- MMU_\nUNAUTH_ACCESS -->
<g id="node8" class="node"><title>MMU_\nUNAUTH_ACCESS</title>
<polygon fill="#ffaeb9" stroke="black" points="206,-287.5 99,-287.5 99,-251.5 206,-251.5 206,-287.5"/>
<text text-anchor="middle" x="152.5" y="-272.5" font-family="Helvetica,sans-Serif" font-size="10.00">MMU_</text>
<text text-anchor="middle" x="152.5" y="-261.5" font-family="Helvetica,sans-Serif" font-size="10.00">UNAUTH_ACCESS</text>
</g>
<!-- Look up\npage\ndirectory&#45;&gt;MMU_\nUNAUTH_ACCESS -->
<g id="edge5" class="edge"><title>Look up\npage\ndirectory&#45;&gt;MMU_\nUNAUTH_ACCESS</title>
<path fill="none" stroke="black" d="M165.37,-355.766C160.563,-350.536 156.176,-344.511 153.5,-338 148.314,-325.381 147.638,-310.282 148.442,-297.567"/>
<polygon fill="black" stroke="black" points="151.932,-297.841 149.399,-287.554 144.963,-297.175 151.932,-297.841"/>
<text text-anchor="middle" x="196.5" y="-330.8" font-family="Helvetica,sans-Serif" font-size="9.00">In user mode</text>
<text text-anchor="middle" x="196.5" y="-320.8" font-family="Helvetica,sans-Serif" font-size="9.00">and page directory is</text>
<text text-anchor="middle" x="196.5" y="-310.8" font-family="Helvetica,sans-Serif" font-size="9.00">supervisor&#45;only</text>
</g>
<!-- Find page physical\naddress and add\noffset -->
<g id="node9" class="node"><title>Find page physical\naddress and add\noffset</title>
<polygon fill="none" stroke="black" points="362.5,-183 264.5,-183 264.5,-142 362.5,-142 362.5,-183"/>
<text text-anchor="middle" x="313.5" y="-171" font-family="Helvetica,sans-Serif" font-size="10.00">Find page physical</text>
<text text-anchor="middle" x="313.5" y="-160" font-family="Helvetica,sans-Serif" font-size="10.00">address and add</text>
<text text-anchor="middle" x="313.5" y="-149" font-family="Helvetica,sans-Serif" font-size="10.00">offset</text>
</g>
<!-- Look up\npage\ntable&#45;&gt;Find page physical\naddress and add\noffset -->
<g id="edge6" class="edge"><title>Look up\npage\ntable&#45;&gt;Find page physical\naddress and add\noffset</title>
<path fill="none" stroke="black" d="M282.158,-248.602C287.547,-243.378 292.733,-237.398 296.5,-231 303.255,-219.529 307.344,-205.432 309.811,-193.093"/>
<polygon fill="black" stroke="black" points="313.26,-193.689 311.525,-183.237 306.363,-192.49 313.26,-193.689"/>
<text text-anchor="middle" x="320" y="-213.8" font-family="Helvetica,sans-Serif" font-size="9.00">Other</text>
</g>
<!-- MMU_\nUNAUTH_WRITE -->
<g id="node10" class="node"><title>MMU_\nUNAUTH_WRITE</title>
<polygon fill="#ffaeb9" stroke="black" points="131.5,-180.5 33.5,-180.5 33.5,-144.5 131.5,-144.5 131.5,-180.5"/>
<text text-anchor="middle" x="82.5" y="-165.5" font-family="Helvetica,sans-Serif" font-size="10.00">MMU_</text>
<text text-anchor="middle" x="82.5" y="-154.5" font-family="Helvetica,sans-Serif" font-size="10.00">UNAUTH_WRITE</text>
</g>
<!-- Look up\npage\ntable&#45;&gt;MMU_\nUNAUTH_WRITE -->
<g id="edge7" class="edge"><title>Look up\npage\ntable&#45;&gt;MMU_\nUNAUTH_WRITE</title>
<path fill="none" stroke="black" d="M229.376,-254.55C224.515,-252.443 219.427,-250.483 214.5,-249 163.28,-233.581 134.075,-268.057 95.5,-231 84.8698,-220.788 81.4711,-204.717 80.8004,-190.818"/>
<polygon fill="black" stroke="black" points="84.3,-190.726 80.7446,-180.746 77.3001,-190.765 84.3,-190.726"/>
<text text-anchor="middle" x="139.5" y="-223.8" font-family="Helvetica,sans-Serif" font-size="9.00">Requested for writing</text>
<text text-anchor="middle" x="139.5" y="-213.8" font-family="Helvetica,sans-Serif" font-size="9.00">and page table is</text>
<text text-anchor="middle" x="139.5" y="-203.8" font-family="Helvetica,sans-Serif" font-size="9.00">read&#45;only</text>
</g>
<!-- MMU_\nUNAUTH_EXEC -->
<g id="node11" class="node"><title>MMU_\nUNAUTH_EXEC</title>
<polygon fill="#ffaeb9" stroke="black" points="241.5,-180.5 149.5,-180.5 149.5,-144.5 241.5,-144.5 241.5,-180.5"/>
<text text-anchor="middle" x="195.5" y="-165.5" font-family="Helvetica,sans-Serif" font-size="10.00">MMU_</text>
<text text-anchor="middle" x="195.5" y="-154.5" font-family="Helvetica,sans-Serif" font-size="10.00">UNAUTH_EXEC</text>
</g>
<!-- Look up\npage\ntable&#45;&gt;MMU_\nUNAUTH_EXEC -->
<g id="edge8" class="edge"><title>Look up\npage\ntable&#45;&gt;MMU_\nUNAUTH_EXEC</title>
<path fill="none" stroke="black" d="M229.323,-255.994C213.866,-248.262 196.758,-238.43 192.5,-231 185.597,-218.954 185.718,-203.618 187.844,-190.609"/>
<polygon fill="black" stroke="black" points="191.278,-191.285 189.883,-180.782 184.424,-189.863 191.278,-191.285"/>
<text text-anchor="middle" x="242.5" y="-223.8" font-family="Helvetica,sans-Serif" font-size="9.00">Requested for execution</text>
<text text-anchor="middle" x="242.5" y="-213.8" font-family="Helvetica,sans-Serif" font-size="9.00">and page table is</text>
<text text-anchor="middle" x="242.5" y="-203.8" font-family="Helvetica,sans-Serif" font-size="9.00">data&#45;only</text>
</g>
<!-- Find page physical\naddress and add\noffset&#45;&gt;X1 -->
<g id="edge9" class="edge"><title>Find page physical\naddress and add\noffset&#45;&gt;X1</title>
<path fill="none" stroke="black" d="M321.442,-141.797C325.264,-132.316 329.777,-121.119 333.336,-112.292"/>
<polygon fill="black" stroke="black" points="336.599,-113.557 337.092,-102.974 330.107,-110.94 336.599,-113.557"/>
</g>
</g>
</svg>
