<?xml version="1.0" encoding="UTF-8" standalone="no"?>
<!DOCTYPE svg PUBLIC "-//W3C//DTD SVG 1.1//EN"
 "http://www.w3.org/Graphics/SVG/1.1/DTD/svg11.dtd">
<!-- Generated by graphviz version 2.28.0 (20110507.0327)
 -->
<!-- Title: _anonymous_0 Pages: 1 -->
<svg width="652pt" height="600pt"
 viewBox="0.00 0.00 652.00 600.00" xmlns="http://www.w3.org/2000/svg" xmlns:xlink="http://www.w3.org/1999/xlink">
<g id="graph1" class="graph" transform="scale(1 1) rotate(0) translate(4 596)">
<title>_anonymous_0</title>
<polygon fill="white" stroke="white" points="-4,5 -4,-596 649,-596 649,5 -4,5"/>
<!-- X3 -->
<g id="node2" class="node"><title>X3</title>
<polygon fill="none" stroke="black" points="414,-508 405,-499 414,-490 423,-499 414,-508"/>
</g>
<!-- X1 -->
<g id="node3" class="node"><title>X1</title>
<polygon fill="none" stroke="black" points="370,-110 361,-101 370,-92 379,-101 370,-110"/>
</g>
<!-- X3&#45;&gt;X1 -->
<g id="edge21" class="edge"><title>X3&#45;&gt;X1</title>
<path fill="none" stroke="black" d="M414,-489.786C414,-472.823 414,-432.688 414,-399 414,-399 414,-399 414,-169 414,-145.934 395.555,-124.65 382.55,-112.51"/>
<polygon fill="black" stroke="black" points="384.541,-109.602 374.709,-105.656 379.935,-114.873 384.541,-109.602"/>
<text text-anchor="middle" x="432.5" y="-287" font-family="Sudo" font-size="10.00">MMU</text>
<text text-anchor="middle" x="432.5" y="-276" font-family="Sudo" font-size="10.00">inactive</text>
</g>
<!-- Look up\npage\ndirectory -->
<g id="node8" class="node"><title>Look up\npage\ndirectory</title>
<polygon fill="none" stroke="black" points="233,-420 169,-420 169,-376 233,-376 233,-420"/>
<text text-anchor="middle" x="201" y="-407.2" font-family="Sudo" font-size="11.00">Look up</text>
<text text-anchor="middle" x="201" y="-395.2" font-family="Sudo" font-size="11.00">page</text>
<text text-anchor="middle" x="201" y="-383.2" font-family="Sudo" font-size="11.00">directory</text>
</g>
<!-- X3&#45;&gt;Look up\npage\ndirectory -->
<g id="edge5" class="edge"><title>X3&#45;&gt;Look up\npage\ndirectory</title>
<path fill="none" stroke="black" d="M408.303,-495.352C385.023,-484.532 295.829,-443.076 242.316,-418.203"/>
<polygon fill="black" stroke="black" points="243.628,-414.954 233.085,-413.913 240.678,-421.301 243.628,-414.954"/>
<text text-anchor="middle" x="371" y="-458" font-family="Sudo" font-size="10.00">MMU</text>
<text text-anchor="middle" x="371" y="-447" font-family="Sudo" font-size="10.00">active</text>
</g>
<!-- MMU_OUT_OF_BOUNDS -->
<g id="node24" class="node"><title>MMU_OUT_OF_BOUNDS</title>
<polygon fill="#ffaeb9" stroke="black" points="515,-40 409,-40 409,-4 515,-4 515,-40"/>
<text text-anchor="middle" x="462" y="-19.2" font-family="Sudo" font-size="11.00">MMU_OUT_OF_BOUNDS</text>
</g>
<!-- X1&#45;&gt;MMU_OUT_OF_BOUNDS -->
<g id="edge25" class="edge"><title>X1&#45;&gt;MMU_OUT_OF_BOUNDS</title>
<path fill="none" stroke="black" d="M374.46,-96.2117C382.531,-89.3622 400.102,-74.4706 415,-62 420.925,-57.0402 427.285,-51.7438 433.353,-46.7043"/>
<polygon fill="black" stroke="black" points="435.916,-49.1259 441.378,-40.0474 431.447,-43.7385 435.916,-49.1259"/>
<text text-anchor="middle" x="440" y="-65.5" font-family="Sudo" font-size="10.00">&gt;= RAM size</text>
</g>
<!-- Access\nRAM\ndirectly -->
<g id="node27" class="node"><title>Access\nRAM\ndirectly</title>
<polygon fill="#bcee68" stroke="black" points="374.25,-44 315.75,-44 315.75,-0 374.25,-0 374.25,-44"/>
<text text-anchor="middle" x="345" y="-31.2" font-family="Sudo" font-size="11.00">Access</text>
<text text-anchor="middle" x="345" y="-19.2" font-family="Sudo" font-size="11.00">RAM</text>
<text text-anchor="middle" x="345" y="-7.2" font-family="Sudo" font-size="11.00">directly</text>
</g>
<!-- X1&#45;&gt;Access\nRAM\ndirectly -->
<g id="edge23" class="edge"><title>X1&#45;&gt;Access\nRAM\ndirectly</title>
<path fill="none" stroke="black" d="M365.218,-96.6052C359.422,-92.1696 349.944,-83.8023 346,-74 343.527,-67.8535 342.414,-60.944 342.077,-54.2423"/>
<polygon fill="black" stroke="black" points="345.578,-54.0306 342.103,-44.0217 338.578,-54.0127 345.578,-54.0306"/>
<text text-anchor="middle" x="369" y="-65.5" font-family="Sudo" font-size="10.00">&lt; RAM size</text>
</g>
<!-- X2 -->
<g id="node4" class="node"><title>X2</title>
<polygon fill="none" stroke="black" points="531,-508 522,-499 531,-490 540,-499 531,-508"/>
</g>
<!-- Access\ndevice\nregister -->
<g id="node22" class="node"><title>Access\ndevice\nregister</title>
<polygon fill="#bcee68" stroke="black" points="566.25,-420 507.75,-420 507.75,-376 566.25,-376 566.25,-420"/>
<text text-anchor="middle" x="537" y="-407.2" font-family="Sudo" font-size="11.00">Access</text>
<text text-anchor="middle" x="537" y="-395.2" font-family="Sudo" font-size="11.00">device</text>
<text text-anchor="middle" x="537" y="-383.2" font-family="Sudo" font-size="11.00">register</text>
</g>
<!-- X2&#45;&gt;Access\ndevice\nregister -->
<g id="edge29" class="edge"><title>X2&#45;&gt;Access\ndevice\nregister</title>
<path fill="none" stroke="black" d="M531.471,-490.232C532.246,-477.441 533.832,-451.269 535.108,-430.225"/>
<polygon fill="black" stroke="black" points="538.611,-430.28 535.722,-420.086 531.623,-429.856 538.611,-430.28"/>
<text text-anchor="middle" x="553.5" y="-463.5" font-family="Sudo" font-size="10.00">Register</text>
<text text-anchor="middle" x="553.5" y="-452.5" font-family="Sudo" font-size="10.00">memory</text>
<text text-anchor="middle" x="553.5" y="-441.5" font-family="Sudo" font-size="10.00">area</text>
</g>
<!-- Access\ndevice\nRAM -->
<g id="node23" class="node"><title>Access\ndevice\nRAM</title>
<polygon fill="#bcee68" stroke="black" points="639,-420 585,-420 585,-376 639,-376 639,-420"/>
<text text-anchor="middle" x="612" y="-407.2" font-family="Sudo" font-size="11.00">Access</text>
<text text-anchor="middle" x="612" y="-395.2" font-family="Sudo" font-size="11.00">device</text>
<text text-anchor="middle" x="612" y="-383.2" font-family="Sudo" font-size="11.00">RAM</text>
</g>
<!-- X2&#45;&gt;Access\ndevice\nRAM -->
<g id="edge31" class="edge"><title>X2&#45;&gt;Access\ndevice\nRAM</title>
<path fill="none" stroke="black" d="M536.984,-495.863C546.37,-492.249 564.653,-484.119 576,-472 587.3,-459.931 595.791,-443.646 601.68,-429.519"/>
<polygon fill="black" stroke="black" points="604.956,-430.75 605.344,-420.163 598.438,-428.198 604.956,-430.75"/>
<text text-anchor="middle" x="621" y="-463.5" font-family="Sudo" font-size="10.00">RAM device</text>
<text text-anchor="middle" x="621" y="-452.5" font-family="Sudo" font-size="10.00">memory</text>
<text text-anchor="middle" x="621" y="-441.5" font-family="Sudo" font-size="10.00">area</text>
</g>
<!-- X2&#45;&gt;MMU_OUT_OF_BOUNDS -->
<g id="edge33" class="edge"><title>X2&#45;&gt;MMU_OUT_OF_BOUNDS</title>
<path fill="none" stroke="black" d="M526.92,-493.879C514.661,-481.041 479,-440.158 479,-399 479,-399 479,-399 479,-100 479,-83.1453 475.068,-64.693 470.986,-50.078"/>
<polygon fill="black" stroke="black" points="474.251,-48.7767 468.041,-40.192 467.542,-50.7751 474.251,-48.7767"/>
<text text-anchor="middle" x="490.5" y="-224.5" font-family="Sudo" font-size="10.00">Other</text>
</g>
<!-- Memory\nAccess -->
<g id="node5" class="node"><title>Memory\nAccess</title>
<polygon fill="none" stroke="black" points="494,-592 440,-592 440,-556 494,-556 494,-592"/>
<text text-anchor="middle" x="467" y="-577.2" font-family="Sudo" font-size="11.00">Memory</text>
<text text-anchor="middle" x="467" y="-565.2" font-family="Sudo" font-size="11.00">Access</text>
</g>
<!-- Memory\nAccess&#45;&gt;X3 -->
<g id="edge3" class="edge"><title>Memory\nAccess&#45;&gt;X3</title>
<path fill="none" stroke="black" d="M447.556,-555.91C442.104,-550.525 436.455,-544.322 432,-538 427.141,-531.105 423.001,-522.693 419.922,-515.538"/>
<polygon fill="black" stroke="black" points="423.071,-513.986 416.105,-506.003 416.572,-516.587 423.071,-513.986"/>
<text text-anchor="middle" x="459.5" y="-529.5" font-family="Sudo" font-size="10.00">&lt; 0xF0000000</text>
</g>
<!-- Memory\nAccess&#45;&gt;X2 -->
<g id="edge27" class="edge"><title>Memory\nAccess&#45;&gt;X2</title>
<path fill="none" stroke="black" d="M482.167,-555.7C493.949,-542.261 509.988,-523.967 520.417,-512.072"/>
<polygon fill="black" stroke="black" points="523.174,-514.236 527.135,-504.409 517.911,-509.621 523.174,-514.236"/>
<text text-anchor="middle" x="536.5" y="-529.5" font-family="Sudo" font-size="10.00">&gt;= 0xF0000000</text>
</g>
<!-- Look up\npage\ntable -->
<g id="node10" class="node"><title>Look up\npage\ntable</title>
<polygon fill="none" stroke="black" points="296,-306 242,-306 242,-262 296,-262 296,-306"/>
<text text-anchor="middle" x="269" y="-293.2" font-family="Sudo" font-size="11.00">Look up</text>
<text text-anchor="middle" x="269" y="-281.2" font-family="Sudo" font-size="11.00">page</text>
<text text-anchor="middle" x="269" y="-269.2" font-family="Sudo" font-size="11.00">table</text>
</g>
<!-- Look up\npage\ndirectory&#45;&gt;Look up\npage\ntable -->
<g id="edge7" class="edge"><title>Look up\npage\ndirectory&#45;&gt;Look up\npage\ntable</title>
<path fill="none" stroke="black" d="M233.049,-381.036C242.124,-375.015 251.122,-367.319 257,-358 264.808,-345.621 268.042,-329.798 269.228,-316.05"/>
<polygon fill="black" stroke="black" points="272.724,-316.21 269.777,-306.033 265.735,-315.826 272.724,-316.21"/>
<text text-anchor="middle" x="280.5" y="-338.5" font-family="Sudo" font-size="10.00">Other</text>
</g>
<!-- MMU_PAGE_FAULT -->
<g id="node11" class="node"><title>MMU_PAGE_FAULT</title>
<polygon fill="#ffaeb9" stroke="black" points="90,-302 0,-302 0,-266 90,-266 90,-302"/>
<text text-anchor="middle" x="45" y="-281.2" font-family="Sudo" font-size="11.00">MMU_PAGE_FAULT</text>
</g>
<!-- Look up\npage\ndirectory&#45;&gt;MMU_PAGE_FAULT -->
<g id="edge9" class="edge"><title>Look up\npage\ndirectory&#45;&gt;MMU_PAGE_FAULT</title>
<path fill="none" stroke="black" d="M168.815,-385.52C152.245,-378.817 132.182,-369.424 116,-358 96.8678,-344.493 78.5247,-325.418 65.2769,-310.154"/>
<polygon fill="black" stroke="black" points="67.6058,-307.489 58.4686,-302.126 62.2671,-312.016 67.6058,-307.489"/>
<text text-anchor="middle" x="134.5" y="-344" font-family="Sudo" font-size="10.00">Page</text>
<text text-anchor="middle" x="134.5" y="-333" font-family="Sudo" font-size="10.00">inactive</text>
</g>
<!-- MMU_UNAUTH_ACCESS -->
<g id="node13" class="node"><title>MMU_UNAUTH_ACCESS</title>
<polygon fill="#ffaeb9" stroke="black" points="214,-302 108,-302 108,-266 214,-266 214,-302"/>
<text text-anchor="middle" x="161" y="-281.2" font-family="Sudo" font-size="11.00">MMU_UNAUTH_ACCESS</text>
</g>
<!-- Look up\npage\ndirectory&#45;&gt;MMU_UNAUTH_ACCESS -->
<g id="edge11" class="edge"><title>Look up\npage\ndirectory&#45;&gt;MMU_UNAUTH_ACCESS</title>
<path fill="none" stroke="black" d="M174.072,-375.79C169.178,-370.54 164.756,-364.528 162,-358 155.989,-343.764 155.476,-326.53 156.589,-312.383"/>
<polygon fill="black" stroke="black" points="160.087,-312.587 157.692,-302.267 153.128,-311.828 160.087,-312.587"/>
<text text-anchor="middle" x="209.5" y="-349.5" font-family="Sudo" font-size="10.00">In user mode</text>
<text text-anchor="middle" x="209.5" y="-338.5" font-family="Sudo" font-size="10.00">and page directory is</text>
<text text-anchor="middle" x="209.5" y="-327.5" font-family="Sudo" font-size="10.00">supervisor&#45;only</text>
</g>
<!-- Find page physical\naddress and add\noffset -->
<g id="node16" class="node"><title>Find page physical\naddress and add\noffset</title>
<polygon fill="none" stroke="black" points="385.25,-192 274.75,-192 274.75,-148 385.25,-148 385.25,-192"/>
<text text-anchor="middle" x="330" y="-179.2" font-family="Sudo" font-size="11.00">Find page physical</text>
<text text-anchor="middle" x="330" y="-167.2" font-family="Sudo" font-size="11.00">address and add</text>
<text text-anchor="middle" x="330" y="-155.2" font-family="Sudo" font-size="11.00">offset</text>
</g>
<!-- Look up\npage\ntable&#45;&gt;Find page physical\naddress and add\noffset -->
<g id="edge13" class="edge"><title>Look up\npage\ntable&#45;&gt;Find page physical\naddress and add\noffset</title>
<path fill="none" stroke="black" d="M296.34,-261.9C301.844,-256.567 307.122,-250.492 311,-244 318.6,-231.279 323.194,-215.541 325.954,-201.938"/>
<polygon fill="black" stroke="black" points="329.409,-202.499 327.726,-192.038 322.518,-201.265 329.409,-202.499"/>
<text text-anchor="middle" x="335.5" y="-224.5" font-family="Sudo" font-size="10.00">Other</text>
</g>
<!-- MMU_UNAUTH_WRITE -->
<g id="node17" class="node"><title>MMU_UNAUTH_WRITE</title>
<polygon fill="#ffaeb9" stroke="black" points="138.25,-188 37.75,-188 37.75,-152 138.25,-152 138.25,-188"/>
<text text-anchor="middle" x="88" y="-167.2" font-family="Sudo" font-size="11.00">MMU_UNAUTH_WRITE</text>
</g>
<!-- Look up\npage\ntable&#45;&gt;MMU_UNAUTH_WRITE -->
<g id="edge15" class="edge"><title>Look up\npage\ntable&#45;&gt;MMU_UNAUTH_WRITE</title>
<path fill="none" stroke="black" d="M241.76,-269.025C235.706,-266.357 229.233,-263.831 223,-262 196.073,-254.092 117.776,-263.913 98,-244 86.3549,-232.275 83.9163,-213.793 84.3579,-198.36"/>
<polygon fill="black" stroke="black" points="87.8565,-198.499 85.046,-188.284 80.8727,-198.022 87.8565,-198.499"/>
<text text-anchor="middle" x="145.5" y="-235.5" font-family="Sudo" font-size="10.00">Requested for writing</text>
<text text-anchor="middle" x="145.5" y="-224.5" font-family="Sudo" font-size="10.00">and page table is</text>
<text text-anchor="middle" x="145.5" y="-213.5" font-family="Sudo" font-size="10.00">read&#45;only</text>
</g>
<!-- MMU_UNAUTH_EXEC -->
<g id="node19" class="node"><title>MMU_UNAUTH_EXEC</title>
<polygon fill="#ffaeb9" stroke="black" points="253.25,-188 158.75,-188 158.75,-152 253.25,-152 253.25,-188"/>
<text text-anchor="middle" x="206" y="-167.2" font-family="Sudo" font-size="11.00">MMU_UNAUTH_EXEC</text>
</g>
<!-- Look up\npage\ntable&#45;&gt;MMU_UNAUTH_EXEC -->
<g id="edge17" class="edge"><title>Look up\npage\ntable&#45;&gt;MMU_UNAUTH_EXEC</title>
<path fill="none" stroke="black" d="M241.688,-270.328C225.563,-262.222 207.453,-251.803 203,-244 195.159,-230.259 195.671,-212.579 198.257,-198.06"/>
<polygon fill="black" stroke="black" points="201.708,-198.665 200.417,-188.149 194.868,-197.174 201.708,-198.665"/>
<text text-anchor="middle" x="255" y="-235.5" font-family="Sudo" font-size="10.00">Requested for execution</text>
<text text-anchor="middle" x="255" y="-224.5" font-family="Sudo" font-size="10.00">and page table is</text>
<text text-anchor="middle" x="255" y="-213.5" font-family="Sudo" font-size="10.00">data&#45;only</text>
</g>
<!-- Find page physical\naddress and add\noffset&#45;&gt;X1 -->
<g id="edge19" class="edge"><title>Find page physical\naddress and add\noffset&#45;&gt;X1</title>
<path fill="none" stroke="black" d="M342.656,-147.801C348.842,-137.439 356.117,-125.254 361.607,-116.058"/>
<polygon fill="black" stroke="black" points="364.774,-117.582 366.895,-107.202 358.763,-113.994 364.774,-117.582"/>
</g>
</g>
</svg>
